<svg xmlns="http://www.w3.org/2000/svg" viewBox="0 0 640 480">
  <title>help_order</title>
  <g id="on">
    <rect x="233.71" y="446.39" width="176.56" height="19.75" rx="3"/>
    <path d="M324.29,311.2a3.32,3.32,0,0,0-3.29-3.34,3.17,3.17,0,0,0-1.11.2,3.27,3.27,0,0,0,.34-1.24,3.31,3.31,0,0,0-3.06-3.54,3.21,3.21,0,0,0-.54,0,3.3,3.3,0,0,0-2.85-3.36,2.89,2.89,0,0,0-.93,0,3.29,3.29,0,0,0-2.52-2.36,4.23,4.23,0,0,0-.5-.05.94.94,0,0,0,.06-.15,3.31,3.31,0,0,0-2.35-4l-.25,0A3.28,3.28,0,0,0,306,287.9a3.3,3.3,0,0,0-1.83-3.63,3.31,3.31,0,1,0-4.53,1.84h0a3.3,3.3,0,0,0,1.86,4.2l.16.05a3.31,3.31,0,0,0,2.18,3.8,3.41,3.41,0,0,0,.46.1,3.25,3.25,0,0,0-.84,1.44,3.32,3.32,0,0,0,2.35,4.05,3.47,3.47,0,0,0,.7.1c0,.12-.08.23-.11.35a3.32,3.32,0,0,0,2.6,3.89,3.25,3.25,0,0,0,1.12,0,3.31,3.31,0,0,0,2.75,2.39,3.57,3.57,0,0,0,.73,0,3.3,3.3,0,0,0,3.07,3.37,3.07,3.07,0,0,0,1.32-.18,3.31,3.31,0,1,0,6.27,1.5Z"/>
    <path d="M328.29,147.28a3.31,3.31,0,1,0-3.07-3.54A3.31,3.31,0,0,0,328.29,147.28Z"/>
    <path d="M330.82,147.82a3.3,3.3,0,0,0,5.56,2.82,3.31,3.31,0,1,0,1-2.72,3.31,3.31,0,0,0-6.57-.1Z"/>
    <path d="M341,154.39a3.3,3.3,0,0,0,4.89,3.69,3.27,3.27,0,0,0-.64,1.12,3.31,3.31,0,1,0,4.19-2.09,3.26,3.26,0,0,0-2.81.36,3.41,3.41,0,0,0,.77-1.38,3.31,3.31,0,0,0-6.4-1.7Z"/>
    <path d="M348.53,165a3.31,3.31,0,1,0,4.31-1.82A3.31,3.31,0,0,0,348.53,165Z"/>
    <path d="M351.22,171.31a3.31,3.31,0,0,0,1.54,4.42,3.17,3.17,0,0,0,1,.28,3.3,3.3,0,0,0,3.6,4.34,3.25,3.25,0,0,0-1.8,1.35,3.31,3.31,0,0,0,1,4.57,3.21,3.21,0,0,0,1.09.44,3.29,3.29,0,0,0-.64,5.67,2.82,2.82,0,0,0,.4.24,3.36,3.36,0,0,0-.88.73,3.3,3.3,0,0,0,.4,4.66,3.61,3.61,0,0,0,.86.51,3.33,3.33,0,0,0,1,2.86c.07.07.16.12.24.19a3.29,3.29,0,0,0,.49,3.61,3.31,3.31,0,1,0,5.11,0l-.1-.1a3.29,3.29,0,0,0-.1-4.35,3.25,3.25,0,0,0-.39-.35,3.29,3.29,0,0,0-.68-3.82,3.16,3.16,0,0,0-1-.65,3.29,3.29,0,0,0-1.14-3,3,3,0,0,0-.53-.37,3.31,3.31,0,0,0-.94-6.08,3.29,3.29,0,0,0-1.81-6.27,3.3,3.3,0,0,0,.61-6,3.14,3.14,0,0,0-1.2-.39,3.3,3.3,0,0,0-6.1-2.5Z"/>
    <path d="M298.57,274.67a3.31,3.31,0,1,0,4.5-1.27,2.81,2.81,0,0,0-.47-.21,3.29,3.29,0,1,0-2.21-.48,4,4,0,0,0,.62.31A3.29,3.29,0,0,0,298.57,274.67Z"/>
    <path d="M256.53,308a3.31,3.31,0,1,0,.52,4.65A3.31,3.31,0,0,0,256.53,308Z"/>
    <path d="M406,198.15a3.31,3.31,0,1,0-3.21-3.4A3.31,3.31,0,0,0,406,198.15Z"/>
    <path d="M406.59,204.55a3.31,3.31,0,1,0-4.39-1.62A3.3,3.3,0,0,0,406.59,204.55Z"/>
    <path d="M248.07,276.57a3.28,3.28,0,0,0,1,5.17,3.3,3.3,0,0,0-.53,4.15,3.23,3.23,0,0,0,1.9,1.42,3.31,3.31,0,0,0,.2,3.51,3.24,3.24,0,0,0,2,1.31,3.23,3.23,0,0,0-1.11.59,3.3,3.3,0,0,0,2.47,5.84,3.45,3.45,0,0,0-1.18,1.19,3.31,3.31,0,1,0,4.52-1.23,3.27,3.27,0,0,0-2-.41,3.42,3.42,0,0,0,.4-.26,3.3,3.3,0,0,0-1.44-5.8,3.14,3.14,0,0,0,1-.46,3.29,3.29,0,0,0-1-5.86,3.33,3.33,0,0,0-.08-3.34,3.28,3.28,0,0,0-1.34-1.2,3.29,3.29,0,0,0-.91-5.41,3.3,3.3,0,0,0,.55-3.61,3.22,3.22,0,0,0-1.27-1.43c.13,0,.25,0,.39,0a3.31,3.31,0,1,0-3.53-3.08,3.27,3.27,0,0,0,1.58,2.6,3.29,3.29,0,0,0-1.51,6.3Z"/>
    <path d="M396.11,221.88a3.31,3.31,0,1,0,6.42-1.59,3.26,3.26,0,0,0-1.31-1.89,3.82,3.82,0,0,0,.81-.14,3.3,3.3,0,0,0,.39-6.15,3.3,3.3,0,1,0-5.67-.86,3.28,3.28,0,0,0,1.69,1.8,3.27,3.27,0,0,0,.68,4.74,3.11,3.11,0,0,0-.6.09A3.3,3.3,0,0,0,396.11,221.88Z"/>
    <path d="M265.22,247.77a3.3,3.3,0,0,0-4.66,4.49,3.23,3.23,0,0,0-1.31.06,3.28,3.28,0,0,0-2,4.89,3.3,3.3,0,1,0,3.28,2.3,3.14,3.14,0,0,0-.31-.67,3,3,0,0,0,.66-.1,3.31,3.31,0,0,0,2.42-4,3.54,3.54,0,0,0-.43-1,3.24,3.24,0,0,0,1.12,0,3.31,3.31,0,0,0,2.66-3.85,3.25,3.25,0,0,0-.28-.83,3.3,3.3,0,0,0,5.16-3.1,2.14,2.14,0,0,0-.06-.27,3.32,3.32,0,0,0,1.74-2.85,3.3,3.3,0,0,0,2.55-3.19v-.09a3.29,3.29,0,0,0,1.43-2.4,11.56,11.56,0,0,0,3.93-6.16,3.33,3.33,0,0,0,.52-1.09,3.26,3.26,0,0,0,0-1.67,3.39,3.39,0,0,0,1-1.49,4.26,4.26,0,0,0,.15-.69,3.15,3.15,0,0,0,.69-.76,3.32,3.32,0,0,0,3.08-1.53,3.28,3.28,0,0,0,2.41-1.64,4.56,4.56,0,0,0-8-1.9,3.29,3.29,0,0,0-3.36,2,3.38,3.38,0,0,0-.21.86,3.28,3.28,0,0,0-1.13,3.4,3.28,3.28,0,0,0-1.08,1.69,3.21,3.21,0,0,0,0,1.57,3.36,3.36,0,0,0-.56,1.32,3.28,3.28,0,0,0-1.65,2.43s0,.09,0,.14a3.29,3.29,0,0,0-2.41,2.94,2.44,2.44,0,0,0,0,.27,3.28,3.28,0,0,0-1.46,2.68,3.3,3.3,0,0,0-2.54,3.4,3.54,3.54,0,0,0,.07.47,3.33,3.33,0,0,0-1.73,3.3A3.37,3.37,0,0,0,265.22,247.77Z"/>
    <path d="M363.63,260.43a3.31,3.31,0,1,0,6,2.87v0a3.31,3.31,0,0,0,4.21-1.85c0-.1.06-.2.09-.3a3.3,3.3,0,0,0,3.32-2.24,3.14,3.14,0,0,0,.15-.66,3.31,3.31,0,0,0,2.86-2.43,3.44,3.44,0,0,0,.1-.84,3.29,3.29,0,0,0,2.75-2.61,3.37,3.37,0,0,0,0-1.38,3.22,3.22,0,0,0,1.58-3.45,3.25,3.25,0,0,0,1.17-1.24,3.29,3.29,0,0,0,.29-2.27,3.31,3.31,0,0,0,2.84-3.24,3.43,3.43,0,0,0-.25-1.28,3.24,3.24,0,0,0,1.61.34,3.31,3.31,0,0,0,3.13-3.48,3.41,3.41,0,0,0-.36-1.32,2.17,2.17,0,0,0,.36,0,3.31,3.31,0,0,0,2.9-3.67,3.26,3.26,0,0,0-.48-1.35,3.31,3.31,0,1,0-3.85-3.36,3.22,3.22,0,0,0,.49,1.84,3.31,3.31,0,0,0-2.73,3.64,3.19,3.19,0,0,0,.34,1.11h-.16a3.31,3.31,0,0,0-3.12,3.49,3.17,3.17,0,0,0,.26,1.07,3.3,3.3,0,0,0-4.76,2.94,3.08,3.08,0,0,0,.08.75,3.31,3.31,0,0,0-2.44,1.71,3.25,3.25,0,0,0-.31,2.15,3.33,3.33,0,0,0-1.53,2.35,3.26,3.26,0,0,0,.07,1.17,3.27,3.27,0,0,0-1.59,2.2,2.74,2.74,0,0,0-.06.63,3.32,3.32,0,0,0-2.7,2.42,3.5,3.5,0,0,0-.07.45,3.29,3.29,0,0,0-2.81,2.24.38.38,0,0,0,0,.1,3.31,3.31,0,0,0-3.16,1.89A3.3,3.3,0,0,0,363.63,260.43Z"/>
    <path d="M358.09,264.32a3.31,3.31,0,1,0-.89-5.05,3.36,3.36,0,0,0-.41-.34,3.29,3.29,0,0,0-3.77.14,2.33,2.33,0,0,0-.26-.17,3.31,3.31,0,1,0,.42,5.58h0a3.3,3.3,0,0,0,4.29-.62A3.11,3.11,0,0,0,358.09,264.32Z"/>
    <path d="M347.26,261.83a3.31,3.31,0,1,0-4.68.13A3.31,3.31,0,0,0,347.26,261.83Z"/>
    <path d="M249.39,179.3a3.31,3.31,0,1,0-4.66.41A3.3,3.3,0,0,0,249.39,179.3Z"/>
    <path d="M257,180.35a3.3,3.3,0,0,0,2.36-3,3.29,3.29,0,1,0-1.09-2.67,3.27,3.27,0,0,0-3.13-.72,3.31,3.31,0,1,0,1.86,6.35Z"/>
    <path d="M379.68,311.12a3.31,3.31,0,1,0,4.66.48A3.3,3.3,0,0,0,379.68,311.12Z"/>
    <path d="M270.58,177.42a3.29,3.29,0,0,0,1.17-2,3.28,3.28,0,0,0,4.5-1.91,3.3,3.3,0,0,0,4.27.68,3.39,3.39,0,0,0,1.23-1.38,1.59,1.59,0,0,0,.07.2,3.29,3.29,0,0,0,5.95,0,3.23,3.23,0,0,0,.26,1.87,3.31,3.31,0,1,0,1.62-4.39,3.24,3.24,0,0,0-1.57,1.55,3.3,3.3,0,0,0-4.69-3.47,3.3,3.3,0,0,0-1.55,1.56,3.71,3.71,0,0,0-.26-.53,3.32,3.32,0,0,0-4.56-1.06,3.28,3.28,0,0,0-1.37,1.74,3.31,3.31,0,0,0-5.79,1.58,3.3,3.3,0,1,0,.72,5.57Z"/>
    <path d="M372.72,311a3.28,3.28,0,0,0-1.35,2.27,3.29,3.29,0,1,0,.22,1.71v0a3.45,3.45,0,0,0,.36.65,3.31,3.31,0,1,0,.77-4.61Z"/>
    <circle cx="361.08" cy="312.6" r="3.31" transform="translate(-49.95 69.39) rotate(-10.27)"/>
    <path d="M352.63,306.61a3.31,3.31,0,1,0,4.39,1.62A3.3,3.3,0,0,0,352.63,306.61Z"/>
    <path d="M348.55,301.39a3.31,3.31,0,1,0,.95,4.59A3.31,3.31,0,0,0,348.55,301.39Z"/>
    <path d="M299,181a3.41,3.41,0,0,0,.79-.46,3.31,3.31,0,1,0,2.3-3.47,3.1,3.1,0,0,0-1,.53,3.38,3.38,0,0,0-.19-.88A3.31,3.31,0,1,0,299,181Z"/>
    <path d="M337.76,290.11a3.31,3.31,0,1,0,4.15,2.16A3.3,3.3,0,0,0,337.76,290.11Z"/>
    <path d="M306.1,189.78a3.31,3.31,0,1,0,2.42-4A3.31,3.31,0,0,0,306.1,189.78Z"/>
    <path d="M310.22,195.37a3.33,3.33,0,0,0,3.18,2.72,3.13,3.13,0,0,0,0,.75,3.31,3.31,0,1,0,3.36-3.68,3.59,3.59,0,0,0,0-1,3.31,3.31,0,0,0-6.51,1.19Z"/>
    <path d="M331.13,320.52a3.31,3.31,0,1,0,3.68,2.9A3.31,3.31,0,0,0,331.13,320.52Z"/>
    <path d="M329.78,316.62a3.31,3.31,0,1,0-3.12,3.48A3.31,3.31,0,0,0,329.78,316.62Z"/>
  </g>
  <g id="off">
    <path d="M321.75,348.46A108.32,108.32,0,1,0,213.43,240.14,108.44,108.44,0,0,0,321.75,348.46Zm0-214.64A106.32,106.32,0,1,1,215.43,240.14,106.44,106.44,0,0,1,321.75,133.82Z"/>
    <path d="M321,357.85a1.07,1.07,0,0,0-1.08,1.06l-.37,44.95a1.07,1.07,0,0,0,2.14,0l.37-44.95A1.08,1.08,0,0,0,321,357.85Z"/>
    <path d="M330.36,122.71a1.09,1.09,0,0,0,1.15-1l4.67-65.56A1.07,1.07,0,1,0,334,56l-4.67,65.56A1.08,1.08,0,0,0,330.36,122.71Z"/>
    <path d="M313.63,357.56a1.07,1.07,0,0,0-1.14,1L308,421.84a1.07,1.07,0,1,0,2.13.16l4.51-63.3A1.07,1.07,0,0,0,313.63,357.56Z"/>
    <path d="M337.72,123.46a1.06,1.06,0,0,0,1.2-.91l7.87-58.34a1.07,1.07,0,0,0-2.13-.28l-7.86,58.33A1.06,1.06,0,0,0,337.72,123.46Z"/>
    <path d="M306.27,356.8a1.07,1.07,0,0,0-1.2.92l-8.34,61.83a1.09,1.09,0,0,0,.92,1.21,1.07,1.07,0,0,0,1.21-.92L307.19,358A1.07,1.07,0,0,0,306.27,356.8Z"/>
    <path d="M345,124.68a1.06,1.06,0,0,0,1.26-.84l13.67-68.52a1.08,1.08,0,0,0-.84-1.26,1.06,1.06,0,0,0-1.26.84l-13.67,68.52A1.07,1.07,0,0,0,345,124.68Z"/>
    <path d="M299,355.58a1.08,1.08,0,0,0-1.26.85l-9.81,49.18a1.07,1.07,0,0,0,2.1.41l9.81-49.18A1.08,1.08,0,0,0,299,355.58Z"/>
    <path d="M352.22,126.35a1.06,1.06,0,0,0,1.31-.76l11.74-44.2a1.07,1.07,0,0,0-2.07-.55l-11.74,44.21A1.06,1.06,0,0,0,352.22,126.35Z"/>
    <path d="M291.77,353.91a1.08,1.08,0,0,0-1.31.76L272.32,423a1.07,1.07,0,0,0,2.07.55l18.14-68.31A1.07,1.07,0,0,0,291.77,353.91Z"/>
    <path d="M359.3,128.48a1.09,1.09,0,0,0,1.36-.68l17.25-51.63a1.07,1.07,0,0,0-2-.68l-17.25,51.63A1.07,1.07,0,0,0,359.3,128.48Z"/>
    <path d="M284.69,351.79a1.07,1.07,0,0,0-1.36.68l-18.67,55.89a1.07,1.07,0,0,0,2,.68l18.67-55.9A1.06,1.06,0,0,0,284.69,351.79Z"/>
    <path d="M366.24,131a1.06,1.06,0,0,0,1.39-.59L389.76,75.9a1.07,1.07,0,0,0-2-.8l-22.12,54.55A1.07,1.07,0,0,0,366.24,131Z"/>
    <path d="M277.75,349.23a1.06,1.06,0,0,0-1.39.59l-23,56.68a1.08,1.08,0,0,0,.59,1.4,1.07,1.07,0,0,0,1.39-.59l23-56.69A1.06,1.06,0,0,0,277.75,349.23Z"/>
    <path d="M373,134a1.07,1.07,0,0,0,1.43-.5l30-62.36a1.07,1.07,0,1,0-1.93-.93l-30,62.36A1.08,1.08,0,0,0,373,134Z"/>
    <path d="M271,346.23a1.08,1.08,0,0,0-1.43.5l-21.48,44.69a1.07,1.07,0,0,0,.5,1.43h0a1.08,1.08,0,0,0,1.43-.51l21.48-44.68A1.07,1.07,0,0,0,271,346.23Z"/>
    <path d="M379.56,137.44h0A1.07,1.07,0,0,0,381,137l33.19-59.2a1.07,1.07,0,0,0-.41-1.46,1.09,1.09,0,0,0-1.46.41L379.15,136A1.07,1.07,0,0,0,379.56,137.44Z"/>
    <path d="M264.48,342.82a1.08,1.08,0,0,0-1.46.41L232.4,397.86a1.07,1.07,0,0,0,1.87,1l30.62-54.62A1.07,1.07,0,0,0,264.48,342.82Z"/>
    <path d="M385.9,141.26a1.07,1.07,0,0,0,1.48-.32l30-46.44a1.08,1.08,0,0,0-.32-1.48,1.07,1.07,0,0,0-1.48.32l-30,46.44A1.07,1.07,0,0,0,385.9,141.26Z"/>
    <path d="M258.09,339h0a1.08,1.08,0,0,0-1.48.32l-38.08,58.92a1.07,1.07,0,1,0,1.8,1.16l38.08-58.92A1.07,1.07,0,0,0,258.09,339Z"/>
    <path d="M392,145.47a1.08,1.08,0,0,0,1.5-.22l38.06-51.48a1.07,1.07,0,0,0-1.72-1.28L391.76,144A1.07,1.07,0,0,0,392,145.47Z"/>
    <path d="M397.79,150.05a1.06,1.06,0,0,0,1.5-.13l38.84-46.16a1.07,1.07,0,1,0-1.63-1.38l-38.84,46.16A1.07,1.07,0,0,0,397.79,150.05Z"/>
    <path d="M403.29,155a1.07,1.07,0,0,0,1.52,0l50-52.36a1.07,1.07,0,0,0-1.54-1.48l-50,52.36A1.08,1.08,0,0,0,403.29,155Z"/>
    <path d="M240.7,325.28a1.07,1.07,0,0,0-1.51,0L191.78,375a1.07,1.07,0,0,0,1.55,1.48l47.4-49.65A1.06,1.06,0,0,0,240.7,325.28Z"/>
    <path d="M408.48,160.26a1.07,1.07,0,0,0,1.51.06l58.75-54.25a1.08,1.08,0,1,0-1.46-1.58l-58.74,54.26A1.07,1.07,0,0,0,408.48,160.26Z"/>
    <path d="M234,320l-38.77,35.81a1.05,1.05,0,0,0-.06,1.51,1.07,1.07,0,0,0,1.51.06l38.77-35.81A1.07,1.07,0,1,0,234,320Z"/>
    <path d="M414.83,166l32.66-26.57a1.07,1.07,0,0,0,.16-1.5,1.08,1.08,0,0,0-1.51-.16l-32.66,26.57a1.07,1.07,0,1,0,1.35,1.66Z"/>
    <path d="M230.67,314.42a1.08,1.08,0,0,0-1.51-.16l-49.67,40.4a1.07,1.07,0,0,0-.15,1.51,1.06,1.06,0,0,0,1.5.15l49.67-40.4A1.07,1.07,0,0,0,230.67,314.42Z"/>
    <path d="M226.18,308.54a1.06,1.06,0,0,0-1.49-.25l-55.75,39.8a1.07,1.07,0,0,0,1.24,1.74L225.93,310A1.05,1.05,0,0,0,226.18,308.54Z"/>
    <path d="M175.29,332.8l46.45-28.94A1.07,1.07,0,0,0,220.6,302L174.16,331a1.07,1.07,0,1,0,1.13,1.82Z"/>
    <path d="M425.63,184.28a1.07,1.07,0,0,0,1.45.43l56.81-30.62a1.07,1.07,0,1,0-1-1.89l-56.82,30.63A1.07,1.07,0,0,0,425.63,184.28Z"/>
    <path d="M172.92,321.7l45-24.26a1.07,1.07,0,0,0-1-1.89l-45,24.27a1.07,1.07,0,1,0,1,1.88Z"/>
    <path d="M430.35,191.42l41.58-19.15a1.07,1.07,0,1,0-.89-1.94l-41.59,19.14a1.07,1.07,0,0,0,.9,1.95Z"/>
    <path d="M172.07,310.34l42.47-19.55a1.07,1.07,0,0,0-.9-1.94L171.18,308.4a1.06,1.06,0,0,0-.52,1.42A1.05,1.05,0,0,0,172.07,310.34Z"/>
    <path d="M431.81,197.71a1.07,1.07,0,0,0,1.38.61l76.55-29.57a1.07,1.07,0,0,0-.78-2l-76.54,29.57A1.08,1.08,0,0,0,431.81,197.71Z"/>
    <path d="M212.18,282.56h0a1.06,1.06,0,0,0-1.38-.61l-49.1,19a1.06,1.06,0,0,0-.62,1.38,1.09,1.09,0,0,0,1.39.62l49.1-19A1.06,1.06,0,0,0,212.18,282.56Z"/>
    <path d="M486.21,187.16,435,203.34a1.07,1.07,0,0,0-.69,1.35,1.06,1.06,0,0,0,1.34.69l51.25-16.18a1.07,1.07,0,0,0-.64-2Z"/>
    <path d="M209.74,275.58a1.08,1.08,0,0,0-1.35-.7l-59.65,18.84a1.07,1.07,0,1,0,.65,2L209,276.92A1.08,1.08,0,0,0,209.74,275.58Z"/>
    <path d="M436.26,211.8a1.06,1.06,0,0,0,1.3.78l70.09-17.37a1.07,1.07,0,0,0-.52-2.08L437,210.51A1.07,1.07,0,0,0,436.26,211.8Z"/>
    <path d="M155,281.54a1.08,1.08,0,0,0,1.3.79L207,269.76a1.07,1.07,0,0,0-.52-2.08l-50.69,12.57A1.07,1.07,0,0,0,155,281.54Z"/>
    <path d="M504.5,208a1.07,1.07,0,1,0-.38-2.1l-65.44,11.92a1.07,1.07,0,1,0,.38,2.11Z"/>
    <path d="M160.13,268.53a1.07,1.07,0,0,0,.38,2.11l44.81-8.16a1.07,1.07,0,0,0-.39-2.11Z"/>
    <path d="M509.59,218a1.07,1.07,0,0,0-1.18-.93l-68.56,8.08a1.07,1.07,0,1,0,.25,2.13l68.56-8.09A1.07,1.07,0,0,0,509.59,218Z"/>
    <path d="M205.08,253.92a1.07,1.07,0,0,0-1.19-.94l-62,7.31a1.07,1.07,0,1,0,.25,2.12l62-7.3A1.08,1.08,0,0,0,205.08,253.92Z"/>
    <path d="M507.24,230a1.06,1.06,0,0,0-1.12-1l-65.56,3.58a1.07,1.07,0,0,0,.11,2.14l65.56-3.58A1.07,1.07,0,0,0,507.24,230Z"/>
    <path d="M204.45,246.55a1.08,1.08,0,0,0-1.13-1l-68.83,3.76a1.07,1.07,0,1,0,.12,2.13l68.83-3.75A1.08,1.08,0,0,0,204.45,246.55Z"/>
    <path d="M440.8,240.05a1.06,1.06,0,0,0-1.08,1.06h0a1.07,1.07,0,0,0,1.06,1.08l63.14.52a1.07,1.07,0,0,0,0-2.14Z"/>
    <path d="M203.21,238.08l-66.35-.55a1.07,1.07,0,1,0,0,2.14l66.35.55a1.07,1.07,0,1,0,0-2.14Z"/>
    <path d="M518.84,253.09l-78.27-5.58a1.07,1.07,0,1,0-.16,2.13l78.28,5.58a1.07,1.07,0,1,0,.15-2.13Z"/>
    <path d="M204.57,231.77a1.07,1.07,0,0,0-1-1.15l-74.08-5.28a1.08,1.08,0,0,0-1.15,1,1.07,1.07,0,0,0,1,1.14l74.09,5.28A1.07,1.07,0,0,0,204.57,231.77Z"/>
    <path d="M508,264.12l-68.15-9.18a1.06,1.06,0,0,0-1.2.92,1.07,1.07,0,0,0,.91,1.2l68.15,9.19a1.07,1.07,0,0,0,.29-2.13Z"/>
    <path d="M135.84,216.12l68.28,9.21a1.08,1.08,0,0,0,1.21-.92,1.06,1.06,0,0,0-.92-1.2L136.13,214a1.07,1.07,0,1,0-.29,2.12Z"/>
    <path d="M484.6,271.46l-45.89-9.15a1.07,1.07,0,0,0-.42,2.1l45.89,9.15a1.07,1.07,0,0,0,.42-2.1Z"/>
    <path d="M206.54,217.11a1.05,1.05,0,0,0-.84-1.25l-52.47-10.47a1.07,1.07,0,1,0-.42,2.1L205.28,218A1.06,1.06,0,0,0,206.54,217.11Z"/>
    <path d="M436.53,271.66,486,284.81a1.07,1.07,0,0,0,.55-2.07L437.08,269.6a1.07,1.07,0,1,0-.55,2.06Z"/>
    <path d="M208.22,209.91h0a1.07,1.07,0,0,0-.76-1.31l-61.78-16.41a1.07,1.07,0,1,0-.55,2.07l61.78,16.41A1.07,1.07,0,0,0,208.22,209.91Z"/>
    <path d="M503,299.49l-68-22.73a1.09,1.09,0,0,0-1.36.68,1.07,1.07,0,0,0,.68,1.35l68,22.73a1.07,1.07,0,0,0,.67-2Z"/>
    <path d="M210.34,202.83h0a1.08,1.08,0,0,0-.68-1.36l-62.6-20.91a1.06,1.06,0,0,0-1.35.67,1.07,1.07,0,0,0,.67,1.36L209,203.5A1.07,1.07,0,0,0,210.34,202.83Z"/>
    <path d="M481.63,303.72l-49.15-19.93a1.07,1.07,0,1,0-.8,2l49.14,19.93a1.07,1.07,0,1,0,.81-2Z"/>
    <path d="M144.5,169.3l67,27.18a1.06,1.06,0,0,0,1.39-.59,1.08,1.08,0,0,0-.59-1.4l-67-27.17a1.07,1.07,0,0,0-.8,2Z"/>
    <path d="M428.6,292.57l56.81,27.31a1.07,1.07,0,1,0,.93-1.93l-56.82-27.31a1.07,1.07,0,0,0-.92,1.93Z"/>
    <path d="M215.9,189.13a1.07,1.07,0,0,0-.51-1.43L180.65,171a1.05,1.05,0,0,0-1.42.5,1.06,1.06,0,0,0,.5,1.43l34.74,16.7A1.08,1.08,0,0,0,215.9,189.13Z"/>
    <path d="M494.59,335.66l-68.45-38.37a1.07,1.07,0,0,0-1.05,1.87l68.45,38.37a1.07,1.07,0,1,0,1-1.87Z"/>
    <path d="M170.71,156.55,217.85,183a1.07,1.07,0,1,0,1.05-1.86l-47.14-26.43a1.08,1.08,0,0,0-1.46.41h0A1.08,1.08,0,0,0,170.71,156.55Z"/>
    <path d="M479.54,340.69l-57.19-37a1.07,1.07,0,0,0-1.17,1.8l57.2,37a1.07,1.07,0,1,0,1.16-1.79Z"/>
    <path d="M418.16,309.89a1.07,1.07,0,0,0-1.28,1.72l54.08,40a1.07,1.07,0,0,0,1.27-1.72Z"/>
    <path d="M413.59,315.79a1.07,1.07,0,0,0-1.38,1.64l57.28,48.19a1.07,1.07,0,1,0,1.38-1.63Z"/>
    <path d="M230.41,164.47a1.06,1.06,0,0,0,1.5-.13h0a1.07,1.07,0,0,0-.13-1.51L200.3,136.35a1.07,1.07,0,0,0-1.37,1.64Z"/>
    <path d="M236.85,158.84a1.08,1.08,0,0,0,0-1.52l-37.58-35.88a1.07,1.07,0,0,0-1.48,1.55l37.58,35.88A1.07,1.07,0,0,0,236.85,158.84Z"/>
    <path d="M240.61,153.59a1.07,1.07,0,1,0,1.57-1.45L197.7,104a1.07,1.07,0,0,0-1.58,1.45Z"/>
    <path d="M397.79,331.62a1.08,1.08,0,0,0-1.51-.16,1.07,1.07,0,0,0-.15,1.51l37.14,45.66a1.07,1.07,0,0,0,1.5.16,1.08,1.08,0,0,0,.16-1.51Z"/>
    <path d="M246.21,148.65a1.07,1.07,0,0,0,1.5.16,1.08,1.08,0,0,0,.16-1.51l-24.76-30.44a1.07,1.07,0,0,0-1.66,1.35Z"/>
    <path d="M391.89,336.19a1.06,1.06,0,0,0-1.49-.24,1.07,1.07,0,0,0-.25,1.49l30.11,42.18a1.07,1.07,0,1,0,1.74-1.25Z"/>
    <path d="M252.1,144.07a1.07,1.07,0,0,0,1.74-1.24l-29.24-41a1.07,1.07,0,0,0-1.5-.25,1.06,1.06,0,0,0-.24,1.49Z"/>
    <path d="M385.72,340.39a1.07,1.07,0,1,0-1.81,1.14L418.49,397a1.07,1.07,0,0,0,1.47.34h0a1.06,1.06,0,0,0,.34-1.47Z"/>
    <path d="M258.27,139.87a1.06,1.06,0,0,0,1.47.34,1.07,1.07,0,0,0,.35-1.47L225.92,83.91A1.07,1.07,0,0,0,224.11,85Z"/>
    <path d="M379.3,344.2a1.07,1.07,0,1,0-1.88,1l33.18,61.56a1.07,1.07,0,1,0,1.88-1Z"/>
    <path d="M264.69,136.07a1.07,1.07,0,1,0,1.88-1L240,85.83a1.07,1.07,0,0,0-1.88,1Z"/>
    <path d="M372.65,347.59a1.07,1.07,0,1,0-1.94.9l19.77,42.93a1.07,1.07,0,0,0,1.94-.9Z"/>
    <path d="M271.34,132.68a1.07,1.07,0,0,0,1.94-.9l-23-49.86a1.07,1.07,0,1,0-1.94.89Z"/>
    <path d="M365.81,350.56a1.07,1.07,0,0,0-2,.77l19.83,51.33a1.07,1.07,0,0,0,2-.77Z"/>
    <path d="M278.18,129.71a1.08,1.08,0,0,0,1.39.61,1.07,1.07,0,0,0,.61-1.38L262.93,84.28a1.07,1.07,0,0,0-2,.77Z"/>
    <path d="M358.79,353.09a1.09,1.09,0,0,0-1.35-.7,1.07,1.07,0,0,0-.69,1.35l15.37,48.68a1.07,1.07,0,1,0,2-.65Z"/>
    <path d="M285.2,127.17a1.07,1.07,0,0,0,2.05-.64l-17.81-56.4a1.09,1.09,0,0,0-1.35-.7,1.07,1.07,0,0,0-.69,1.35Z"/>
    <path d="M292.37,125.09a1.07,1.07,0,1,0,2.08-.52L276.69,53a1.07,1.07,0,1,0-2.07.51Z"/>
    <path d="M300.9,124.31a1.07,1.07,0,0,0,.86-1.24l-9.55-52.44a1.07,1.07,0,0,0-2.11.38l9.55,52.44A1.07,1.07,0,0,0,300.9,124.31Z"/>
    <path d="M335.78,357.05a1.07,1.07,0,0,0-.94,1.19l5.41,45.88a1.07,1.07,0,0,0,2.13-.25L337,358A1.07,1.07,0,0,0,335.78,357.05Z"/>
    <path d="M308.21,123.22a1.07,1.07,0,0,0,.94-1.19l-7.7-65.26a1.07,1.07,0,1,0-2.12.25L307,122.28A1.07,1.07,0,0,0,308.21,123.22Z"/>
    <path d="M328.41,357.68a1.07,1.07,0,0,0-1,1.13l2.76,50.49a1.07,1.07,0,0,0,2.14-.11l-2.76-50.5A1.07,1.07,0,0,0,328.41,357.68Z"/>
    <path d="M322,122.43a2.14,2.14,0,0,0,2.14-2.14V68.92a2.14,2.14,0,1,0-4.28,0v51.37A2.14,2.14,0,0,0,322,122.43Z"/>
    <path d="M297.67,240.14a24.09,24.09,0,1,0,24.08-24.08A24.1,24.1,0,0,0,297.67,240.14Zm24.08-22.08a22.08,22.08,0,1,1-22.08,22.08A22.11,22.11,0,0,1,321.75,218.06Z"/>
    <path d="M321.75,255.8a15.66,15.66,0,1,0-15.66-15.66A15.66,15.66,0,0,0,321.75,255.8Z"/>
    <path d="M247,330.86a2.14,2.14,0,0,0-3,.28l-30.65,37.05a2.14,2.14,0,0,0,3.3,2.73l30.64-37.05A2.13,2.13,0,0,0,247,330.86Z"/>
    <path d="M421.41,177.07h0a2.14,2.14,0,0,0,2.95.66l52.58-33.37a2.14,2.14,0,1,0-2.29-3.61l-52.58,33.37A2.13,2.13,0,0,0,421.41,177.07Z"/>
    <path d="M187.43,145l36.35,26.41a2.14,2.14,0,0,0,2.51-3.47L190,141.55a2.14,2.14,0,0,0-3,.48h0A2.13,2.13,0,0,0,187.43,145Z"/>
    <path d="M405.63,326.07a2.14,2.14,0,1,0-3.12,2.93l39.55,42.12a2.14,2.14,0,1,0,3.12-2.93Z"/>
    <path d="M346.57,357.49a2.14,2.14,0,1,0-4.2.8L352,408.57a2.14,2.14,0,0,0,2.5,1.7h0a2.14,2.14,0,0,0,1.7-2.5Z"/>
  </g>
</svg>
